<svg width="26.466524mm" height="26.466524mm" viewBox="0 0 100.03096 100.03096" version="1.1" id="svg1" xml:space="preserve" xmlns="http://www.w3.org/2000/svg" xmlns:svg="http://www.w3.org/2000/svg" xmlns:c2pa="http://c2pa.org/manifest"><metadata><c2pa:manifest>AAAWgmp1bWIAAAAeanVtZGMycGEAEQAQgAAAqgA4m3EDYzJwYQAAABZcanVtYgAAAEdqdW1kYzJtYQARABCAAACqADibcQN1cm46YzJwYTo0MzMyZTUyOC00ODY3LTQwZmQtOGU4NS03NDk1N2YzZTEwYWYAAAADl2p1bWIAAAApanVtZGMyYXMAEQAQgAAAqgA4m3EDYzJwYS5hc3NlcnRpb25zAAAAALxqdW1iAAAARGp1bWRjYm9yABEAEIAAAKoAOJtxE2MycGEuaW5ncmVkaWVudC52MwAAAAAYYzJzaGX8n1Vau1uacOyStJD8kpwAAABwY2JvcqNpZGM6Zm9ybWF0bWltYWdlL3N2Zyt4bWxqaW5zdGFuY2VJRHgseG1wOmlpZDo3OWE5M2ViNS0zZDExLTQ0M2YtYWRlYS03MzQzNTc5ZGU5Y2ZscmVsYXRpb25zaGlwaHBhcmVudE9mAAAB4mp1bWIAAABBanVtZGNib3IAEQAQgAAAqgA4m3ETYzJwYS5hY3Rpb25zLnYyAAAAABhjMnNo2knGZOA2dpZ28BJqWRzp+QAAAZljYm9yomdhY3Rpb25zgqJmYWN0aW9ua2MycGEub3BlbmVkanBhcmFtZXRlcnOha2luZ3JlZGllbnRzgaJjdXJseC1zZWxmI2p1bWJmPWMycGEuYXNzZXJ0aW9ucy9jMnBhLmluZ3JlZGllbnQudjNkaGFzaFggUFR7IWYpZdbl0l8Evy6+olhlfn9pk7p2r2r/MKDy/wmkZmFjdGlvbngdY29tLmFudGhyb3BpYy5jbGF1ZGUucHJvdmlkZWRqcGFyYW1ldGVyc6F4H2NvbS5hbnRocm9waWMub3JpZ2luLWNvbmZpZGVuY2VndW5rbm93bmtkZXNjcmlwdGlvbnhmQ2xhdWRlIHByb3ZpZGVkIHRoaXMgZmlsZSBhdCB0aGUgcmVxdWVzdCBvZiBhIHVzZXIgYW5kIG1heSBoYXZlIGNyZWF0ZWQgb3IgbW9kaWZpZWQgdGhlIGZpbGUgY29udGVudHMubXNvZnR3YXJlQWdlbnShZG5hbWVmQ2xhdWRlcmFsbEFjdGlvbnNJbmNsdWRlZPUAAADIanVtYgAAAEBqdW1kY2JvcgARABCAAACqADibcRNjMnBhLmhhc2guZGF0YQAAAAAYYzJzaBT+V9AkFkp5oY0QpMVkFJAAAACAY2JvcqVjYWxnZnNoYTI1NmNwYWRMAAAAAAAAAAAAAAAAZGhhc2hYIKGqmLw0Ju+RU3b+8EQ1gWwZN/b1SL91/MRHkxVkYQvuZG5hbWVuanVtYmYgbWFuaWZlc3RqZXhjbHVzaW9uc4GiZXN0YXJ0GQEGZmxlbmd0aBkeBAAAAj5qdW1iAAAAJ2p1bWRjMmNsABEAEIAAAKoAOJtxA2MycGEuY2xhaW0udjIAAAACD2Nib3KlY2FsZ2ZzaGEyNTZpc2lnbmF0dXJleE1zZWxmI2p1bWJmPS9jMnBhL3VybjpjMnBhOjQzMzJlNTI4LTQ4NjctNDBmZC04ZTg1LTc0OTU3ZjNlMTBhZi9jMnBhLnNpZ25hdHVyZWppbnN0YW5jZUlEeCx4bXA6aWlkOjY5ZDJlNDY4LTRiZTUtNDk2MS05ODU2LTNkMWE5YzVjZjI0YXJjcmVhdGVkX2Fzc2VydGlvbnODomN1cmx4LXNlbGYjanVtYmY9YzJwYS5hc3NlcnRpb25zL2MycGEuaW5ncmVkaWVudC52M2RoYXNoWCBQVHshZill1uXSXwS/Lr6iWGV+f2mTunavav8woPL/CaJjdXJseCpzZWxmI2p1bWJmPWMycGEuYXNzZXJ0aW9ucy9jMnBhLmFjdGlvbnMudjJkaGFzaFggFbsCFJguuxBeGWjKAt/HAUJorlydK7OQtiqGWPZVovOiY3VybHgpc2VsZiNqdW1iZj1jMnBhLmFzc2VydGlvbnMvYzJwYS5oYXNoLmRhdGFkaGFzaFggJu4Fad81HbCyC6u61BuQ1YfroeqvWaYrDXZHjwlKemR0Y2xhaW1fZ2VuZXJhdG9yX2luZm+jZG5hbWVvQW50aHJvcGljIEZpbGVzZ3ZlcnNpb25lMS4wLjBrc3BlY1ZlcnNpb25lMi40LjAAABA4anVtYgAAAChqdW1kYzJjcwARABCAAACqADibcQNjMnBhLnNpZ25hdHVyZQAAABAIY2JvctKEWQISogEmGCFZAgowggIGMIIBjaADAgECAhRA5aAK7sI50L64g/oGQgU9Z1UTADAKBggqhkjOPQQDAzBJMRcwFQYDVQQKEw5BbnRocm9waWMsIFBCQzEuMCwGA1UEAxMlQW50aHJvcGljIENvbnRlbnQgQ3JlZGVudGlhbHMgUm9vdCBDQTAeFw0yNjA4MDcxODQzNTZaFw0yODA4MDYxOTQzNTZaMEQxFzAVBgNVBAoTDkFudGhyb3BpYywgUEJDMSkwJwYDVQQDEyBBbnRocm9waWMgQ2xhdWRlIENvbnRlbnQgU2lnbmluZzBZMBMGByqGSM49AgEGCCqGSM49AwEHA0IABJh6CmvLUBgFFNU0vUKlOVtE6djd17L5SuwX0LemFisBM3dkd/3cyjxFA3Qo5S46fX0/ihY0VZ7mfb9KF703t5OjWDBWMA4GA1UdDwEB/wQEAwIHgDAVBgNVHSUEDjAMBgorBgEEAYPoXgIBMAwGA1UdEwEB/wQCMAAwHwYDVR0jBBgwFoAUzlHiBIFOZFsj+OPEz5o+nMHXXMIwCgYIKoZIzj0EAwMDZwAwZAIwMXMdFJ4BetLLVY7ORuE9noqbbAZOZn/aArXyTwFAZfKrPzxF2vPoJNf1+UCdg1XGAjBwX1zd9WGqYkqmL5SFqw1QySjr1zJfpJM9+1rdDwSPLMOPOjKuiXjoU/pUUeG9RwmhY3BhZFkNngAAAAAAAAAAAAAAAAAAAAAAAAAAAAAAAAAAAAAAAAAAAAAAAAAAAAAAAAAAAAAAAAAAAAAAAAAAAAAAAAAAAAAAAAAAAAAAAAAAAAAAAAAAAAAAAAAAAAAAAAAAAAAAAAAAAAAAAAAAAAAAAAAAAAAAAAAAAAAAAAAAAAAAAAAAAAAAAAAAAAAAAAAAAAAAAAAAAAAAAAAAAAAAAAAAAAAAAAAAAAAAAAAAAAAAAAAAAAAAAAAAAAAAAAAAAAAAAAAAAAAAAAAAAAAAAAAAAAAAAAAAAAAAAAAAAAAAAAAAAAAAAAAAAAAAAAAAAAAAAAAAAAAAAAAAAAAAAAAAAAAAAAAAAAAAAAAAAAAAAAAAAAAAAAAAAAAAAAAAAAAAAAAAAAAAAAAAAAAAAAAAAAAAAAAAAAAAAAAAAAAAAAAAAAAAAAAAAAAAAAAAAAAAAAAAAAAAAAAAAAAAAAAAAAAAAAAAAAAAAAAAAAAAAAAAAAAAAAAAAAAAAAAAAAAAAAAAAAAAAAAAAAAAAAAAAAAAAAAAAAAAAAAAAAAAAAAAAAAAAAAAAAAAAAAAAAAAAAAAAAAAAAAAAAAAAAAAAAAAAAAAAAAAAAAAAAAAAAAAAAAAAAAAAAAAAAAAAAAAAAAAAAAAAAAAAAAAAAAAAAAAAAAAAAAAAAAAAAAAAAAAAAAAAAAAAAAAAAAAAAAAAAAAAAAAAAAAAAAAAAAAAAAAAAAAAAAAAAAAAAAAAAAAAAAAAAAAAAAAAAAAAAAAAAAAAAAAAAAAAAAAAAAAAAAAAAAAAAAAAAAAAAAAAAAAAAAAAAAAAAAAAAAAAAAAAAAAAAAAAAAAAAAAAAAAAAAAAAAAAAAAAAAAAAAAAAAAAAAAAAAAAAAAAAAAAAAAAAAAAAAAAAAAAAAAAAAAAAAAAAAAAAAAAAAAAAAAAAAAAAAAAAAAAAAAAAAAAAAAAAAAAAAAAAAAAAAAAAAAAAAAAAAAAAAAAAAAAAAAAAAAAAAAAAAAAAAAAAAAAAAAAAAAAAAAAAAAAAAAAAAAAAAAAAAAAAAAAAAAAAAAAAAAAAAAAAAAAAAAAAAAAAAAAAAAAAAAAAAAAAAAAAAAAAAAAAAAAAAAAAAAAAAAAAAAAAAAAAAAAAAAAAAAAAAAAAAAAAAAAAAAAAAAAAAAAAAAAAAAAAAAAAAAAAAAAAAAAAAAAAAAAAAAAAAAAAAAAAAAAAAAAAAAAAAAAAAAAAAAAAAAAAAAAAAAAAAAAAAAAAAAAAAAAAAAAAAAAAAAAAAAAAAAAAAAAAAAAAAAAAAAAAAAAAAAAAAAAAAAAAAAAAAAAAAAAAAAAAAAAAAAAAAAAAAAAAAAAAAAAAAAAAAAAAAAAAAAAAAAAAAAAAAAAAAAAAAAAAAAAAAAAAAAAAAAAAAAAAAAAAAAAAAAAAAAAAAAAAAAAAAAAAAAAAAAAAAAAAAAAAAAAAAAAAAAAAAAAAAAAAAAAAAAAAAAAAAAAAAAAAAAAAAAAAAAAAAAAAAAAAAAAAAAAAAAAAAAAAAAAAAAAAAAAAAAAAAAAAAAAAAAAAAAAAAAAAAAAAAAAAAAAAAAAAAAAAAAAAAAAAAAAAAAAAAAAAAAAAAAAAAAAAAAAAAAAAAAAAAAAAAAAAAAAAAAAAAAAAAAAAAAAAAAAAAAAAAAAAAAAAAAAAAAAAAAAAAAAAAAAAAAAAAAAAAAAAAAAAAAAAAAAAAAAAAAAAAAAAAAAAAAAAAAAAAAAAAAAAAAAAAAAAAAAAAAAAAAAAAAAAAAAAAAAAAAAAAAAAAAAAAAAAAAAAAAAAAAAAAAAAAAAAAAAAAAAAAAAAAAAAAAAAAAAAAAAAAAAAAAAAAAAAAAAAAAAAAAAAAAAAAAAAAAAAAAAAAAAAAAAAAAAAAAAAAAAAAAAAAAAAAAAAAAAAAAAAAAAAAAAAAAAAAAAAAAAAAAAAAAAAAAAAAAAAAAAAAAAAAAAAAAAAAAAAAAAAAAAAAAAAAAAAAAAAAAAAAAAAAAAAAAAAAAAAAAAAAAAAAAAAAAAAAAAAAAAAAAAAAAAAAAAAAAAAAAAAAAAAAAAAAAAAAAAAAAAAAAAAAAAAAAAAAAAAAAAAAAAAAAAAAAAAAAAAAAAAAAAAAAAAAAAAAAAAAAAAAAAAAAAAAAAAAAAAAAAAAAAAAAAAAAAAAAAAAAAAAAAAAAAAAAAAAAAAAAAAAAAAAAAAAAAAAAAAAAAAAAAAAAAAAAAAAAAAAAAAAAAAAAAAAAAAAAAAAAAAAAAAAAAAAAAAAAAAAAAAAAAAAAAAAAAAAAAAAAAAAAAAAAAAAAAAAAAAAAAAAAAAAAAAAAAAAAAAAAAAAAAAAAAAAAAAAAAAAAAAAAAAAAAAAAAAAAAAAAAAAAAAAAAAAAAAAAAAAAAAAAAAAAAAAAAAAAAAAAAAAAAAAAAAAAAAAAAAAAAAAAAAAAAAAAAAAAAAAAAAAAAAAAAAAAAAAAAAAAAAAAAAAAAAAAAAAAAAAAAAAAAAAAAAAAAAAAAAAAAAAAAAAAAAAAAAAAAAAAAAAAAAAAAAAAAAAAAAAAAAAAAAAAAAAAAAAAAAAAAAAAAAAAAAAAAAAAAAAAAAAAAAAAAAAAAAAAAAAAAAAAAAAAAAAAAAAAAAAAAAAAAAAAAAAAAAAAAAAAAAAAAAAAAAAAAAAAAAAAAAAAAAAAAAAAAAAAAAAAAAAAAAAAAAAAAAAAAAAAAAAAAAAAAAAAAAAAAAAAAAAAAAAAAAAAAAAAAAAAAAAAAAAAAAAAAAAAAAAAAAAAAAAAAAAAAAAAAAAAAAAAAAAAAAAAAAAAAAAAAAAAAAAAAAAAAAAAAAAAAAAAAAAAAAAAAAAAAAAAAAAAAAAAAAAAAAAAAAAAAAAAAAAAAAAAAAAAAAAAAAAAAAAAAAAAAAAAAAAAAAAAAAAAAAAAAAAAAAAAAAAAAAAAAAAAAAAAAAAAAAAAAAAAAAAAAAAAAAAAAAAAAAAAAAAAAAAAAAAAAAAAAAAAAAAAAAAAAAAAAAAAAAAAAAAAAAAAAAAAAAAAAAAAAAAAAAAAAAAAAAAAAAAAAAAAAAAAAAAAAAAAAAAAAAAAAAAAAAAAAAAAAAAAAAAAAAAAAAAAAAAAAAAAAAAAAAAAAAAAAAAAAAAAAAAAAAAAAAAAAAAAAAAAAAAAAAAAAAAAAAAAAAAAAAAAAAAAAAAAAAAAAAAAAAAAAAAAAAAAAAAAAAAAAAAAAAAAAAAAAAAAAAAAAAAAAAAAAAAAAAAAAAAAAAAAAAAAAAAAAAAAAAAAAAAAAAAAAAAAAAAAAAAAAAAAAAAAAAAAAAAAAAAAAAAAAAAAAAAAAAAAAAAAAAAAAAAAAAAAAAAAAAAAAAAAAAAAAAAAAAAAAAAAAAAAAAAAAAAAAAAAAAAAAAAAAAAAAAAAAAAAAAAAAAAAAAAAAAAAAAAAAAAAAAAAAAAAAAAAAAAAAAAAAAAAAAAAAAAAAAAAAAAAAAAAAAAAAAAAAAAAAAAAAAAAAAAAAAAAAAAAAAAAAAAAAAAAAAAAAAAAAAAAAAAAAAAAAAAAAAAAAAAAAAAAAAAAAAAAAAAAAAAAAAAAAAAAAAAAAAAAAAAAAAAAAAAAAAAAAAAAAAAAAAAAAAAAAAAAAAAAAAAAAAAAAAAAAAAAAAAAAAAAAAAAAAAAAAAAAAAAAAAAAAAAAAAAAAAAAAAAAAAAAAAAAAAAAAAAAAAAAAAAAAAAAAAAAAAAAAAAAAAAAAAAAAAAAAAAAAAAAAAAAAAAAAAAAAAAAAAAAAAAAAAAAAAAAAAAAAAAAAAAAAAAAAAAAAAAAAAAAAAAAAAAAAAAAAAAAAAAAAAAAAAAAAAAAAAAAAAAAAAAAAAAAAAAAAAAAAAAAAAAAAAAAAAAAAAAAAAAAAAAAAAAAAAAAAAAAAAAAAAAAAAAAAAAAAAAAAAAAAAAAAAAAAAAAAAAAAAAAAAAAAAAAAAAAAAAAAAAAAAAAAAAAAAAAAAAAAAAAAAAAAAAAAAAAAAAAAAAAAAAAAAAAAAAAAAAAAAAAAAAAAAAAAAAAAAAAAAAAAAAAAAAAAAAAAAAAAAAAAAAAAAAAAAAAAAAAAAAAAAAAAAAAAAAAAAAAAAAAAAAAAAAAAAAAAAAAAAAAAAAAAAAAAAAAAAAAAAAAAAAAAAAAAAAAAAAAAAAAAAAAAAAAAAAAAAAAAAAAAAAAAAAAAAAAAAAAAAAAAAAAAAAAAAAAAAAAAAAAAAAAAAAAAAAAAAAAAAAAAAAAAAAAAAAAAAAAAAAAAAAAAAAAAAAAAAAAAAAAAAAAAAAAAAAAAAAAAAAAAAAAAAAAAAAAAAAAAAAAAAAAAAAAAAAAAAAAAAAAAAAAAAAAAAAAAAAAAAAAAAAAAAAAAAAAAAAAAAAAAAAAAAAAAAAAAAAAAAAAAAAAAAAAAAAAAAAAAAAAAAAAAAAAAAAAAAAAAAAAAAAAAAAAAAAAAAAAAAAAAAAAAAAAAAAAAAAAAAAAAAAAAAAAAAAAAAAAAAAAAAAAAAAAAAAAAAAAAAAAAAAAAAAAAAAAAAAAAAAAAAAAAAAAAAAAAAAAAAAAAAAAAAAAAAAAAAAAAAAAAAAAAAAAAAAAAAAAAAAAAAAAAAAAAAAAPZYQCaiWP7/GthBXR5EiprTuyHwZqvXr2neAV3Gb4cJwCbtbf3LmXiOYWY2yZYiL7lm2KMBETeIwBF0GEobspzJeCQ=</c2pa:manifest></metadata><defs id="defs1"/><g id="g9" style="display:inline" transform="matrix(0.96762006,0,0,0.96762006,-152.61807,-24.356556)"><rect style="fill:#001e61;fill-opacity:1" id="rect1-5-2" width="103.37833" height="103.37833" x="261.10352" y="25.171614" ry="6.6953231e-07"/><path class="st0" d="m 329.02332,74.934824 0.7337,-3.622627 h -6.2517 v -4.937163 l -4.3869,0.672555 v 14.765633 c 0,5.105296 1.95653,6.618547 7.30639,6.618547 h 2.33866 l 0.73369,-3.592052 h -2.75135 c -2.43037,0 -3.22521,-0.611412 -3.22521,-3.332201 v -6.58798 c -0.0305,0.01527 5.50272,0.01527 5.50272,0.01527 z m -30.18853,-10.27175 v 15.86618 c 0,5.884857 2.65965,8.330507 8.43751,8.330507 6.00713,0 8.66678,-2.384507 8.66678,-8.299939 v -1.513251 c 0,-5.563855 -2.46094,-8.269356 -7.84138,-8.269356 -1.71196,0 -3.57677,0.351553 -4.83017,1.36039 v -8.177653 z m 8.60564,9.660338 c 3.04178,0 4.11175,1.222825 4.11175,4.876019 v 1.360391 c 0,3.561485 -1.06997,4.784317 -4.17289,4.784317 -3.10292,0 -4.17289,-1.222832 -4.17289,-4.814885 v -1.834237 c 0,-3.271066 1.06997,-4.371605 4.23403,-4.371605 z m 32.2062,-3.546197 c -5.77786,0 -8.43751,2.491505 -8.43751,8.177653 v 0.871264 c 0,5.395722 2.30809,8.009512 7.74967,8.009512 1.74253,0 3.48506,-0.320993 4.70788,-1.329823 v 0.641981 c 0,3.041782 -1.29925,4.035331 -4.32575,4.035331 h -1.81896 c -1.0394,0.01527 -1.51324,0.213988 -2.13994,1.253396 v 0 c -5.2123,8.437501 -14.26122,13.588671 -24.12026,13.588671 -15.74389,0 -28.53771,-13.084249 -28.53771,-29.164428 0,-16.080168 12.79382,-29.164417 28.53771,-29.164417 11.0513,0 21.10905,6.542124 25.81693,16.722156 h 1.31455 C 333.57835,53.504781 322.95505,46.47353 311.26176,46.47353 c -16.40116,0 -29.72997,13.634518 -29.72997,30.387242 0,16.752727 13.32881,30.387248 29.72997,30.387248 9.64505,0 18.52583,-4.72316 24.07441,-12.564542 h 4.24932 c 5.59443,0 8.46807,-2.170519 8.46807,-7.68853 v -8.330506 c 0,-5.50272 -2.75136,-7.887227 -8.40693,-7.887227 z m 4.05062,9.583899 c 0,3.041782 -1.03941,3.974189 -4.05062,3.974189 -3.37806,0 -4.05062,-1.192258 -4.05062,-4.723167 v -0.55027 c 0,-3.485062 0.59613,-4.753742 4.05062,-4.753742 3.37806,0 4.05062,1.222825 4.05062,4.78431 z" id="path4-1" style="fill:#ffffff;stroke-width:0.152853" clip-path="url(#SVGID_2_)"/></g><g id="g8" style="display:inline" transform="matrix(0.96762008,0,0,0.96762008,-139.06392,-24.3674)"><rect style="fill:#000000;fill-opacity:1" id="rect1-5" width="103.37833" height="103.37833" x="143.71747" y="25.182817" ry="3.5397463e-07"/><path fill-rule="evenodd" clip-rule="evenodd" shape-rendering="geometricPrecision" d="m 185.67531,82.315277 c 1.04695,-0.916418 1.7292,-2.1208 2.05083,-3.611817 h 10.33485 c -0.47368,4.261775 -2.18943,7.712107 -5.14588,10.35369 -2.95782,2.641575 -6.59925,3.963035 -10.92158,3.963035 -3.15294,0 -5.99097,-0.693029 -8.51548,-2.077736 -2.5245,-1.384707 -4.49459,-3.309042 -5.91024,-5.772976 -1.41567,-2.463956 -2.1235,-5.229328 -2.1235,-8.297489 0,-3.068161 0.70783,-5.833539 2.1235,-8.297495 1.41565,-2.463942 3.38574,-4.388262 5.91024,-5.772976 2.52451,-1.386053 5.36254,-2.077737 8.51548,-2.077737 4.25371,0 7.84535,1.274362 10.7749,3.824437 2.92821,2.548716 4.65876,5.890054 5.18758,10.022647 h -10.18679 c -0.43199,-1.363179 -1.17077,-2.459906 -2.21771,-3.291542 -1.04557,-0.830283 -2.21768,-1.246101 -3.51493,-1.246101 -1.78573,0 -3.22559,0.628431 -4.31963,1.885299 -1.09674,1.256869 -1.6431,2.908028 -1.6431,4.952123 0,2.031984 0.55176,3.676402 1.6525,4.933271 1.10349,1.256869 2.53799,1.883961 4.31023,1.883961 1.38068,0 2.59448,-0.457536 3.64009,-1.372594 z m 36.68334,-8.397073 c 2.00642,1.924328 3.0103,4.41384 3.0103,7.464508 0,3.488013 -1.15459,6.300491 -3.46513,8.434749 -2.31188,2.135595 -5.35583,3.202724 -9.1372,3.202724 -3.73562,0 -6.77282,-1.071164 -9.11296,-3.213492 -2.3415,-2.143673 -3.51092,-4.919819 -3.51092,-8.333819 0,-1.863779 0.32163,-3.739656 0.96353,-5.626307 0.64189,-1.886645 1.63501,-3.950923 2.97934,-6.190146 l 4.75027,-7.899156 10.03881,-0.0015 -5.62093,9.320209 c 0.56115,-0.02964 1.00388,-0.04441 1.32954,-0.04441 3.17446,0 5.76491,0.962164 7.77401,2.8865 z m -6.77821,10.328127 c 0.72264,-0.736087 1.08463,-1.69018 1.08463,-2.863619 0,-1.172087 -0.36199,-2.134251 -1.08463,-2.886492 -0.72396,-0.752234 -1.66191,-1.127678 -2.81247,-1.127678 -1.15191,0 -2.0912,0.376789 -2.81248,1.127678 -0.72533,0.752241 -1.08597,1.714405 -1.08597,2.886492 0,1.173439 0.36064,2.127532 1.08462,2.863619 0.72263,0.73743 1.66192,1.106149 2.81248,1.106149 1.15191,0 2.08986,-0.368719 2.81248,-1.106149 z" id="path2" style="fill:#ffffff;stroke-width:1.34569"/></g><style type="text/css" id="style2"> .st0{fill-rule:evenodd;clip-rule:evenodd;fill:#001E61;}
</style><style type="text/css" id="style2-0"> .st0{clip-path:url(#SVGID_2_);fill:#000051;} .st1{clip-path:url(#SVGID_2_);fill:#0788FE;} .st2{clip-path:url(#SVGID_2_);fill:#A06FFE;} .st3{clip-path:url(#SVGID_2_);fill:#00D9CB;}
</style></svg>