<svg width="26.466524mm" height="26.466524mm" viewBox="0 0 100.03096 100.03096" version="1.1" id="svg1" xmlns="http://www.w3.org/2000/svg" xmlns:c2pa="http://c2pa.org/manifest"><metadata><c2pa:manifest>AAAWgmp1bWIAAAAeanVtZGMycGEAEQAQgAAAqgA4m3EDYzJwYQAAABZcanVtYgAAAEdqdW1kYzJtYQARABCAAACqADibcQN1cm46YzJwYTo2NjE4MGUwYy05OTkyLTQxYjItYmQ2Mi1jOTg5ZTg2YTQyY2UAAAADl2p1bWIAAAApanVtZGMyYXMAEQAQgAAAqgA4m3EDYzJwYS5hc3NlcnRpb25zAAAAALxqdW1iAAAARGp1bWRjYm9yABEAEIAAAKoAOJtxE2MycGEuaW5ncmVkaWVudC52MwAAAAAYYzJzaP7A+koYZRpFifozjHerR8kAAABwY2JvcqNpZGM6Zm9ybWF0bWltYWdlL3N2Zyt4bWxqaW5zdGFuY2VJRHgseG1wOmlpZDo2YzE3OWNmOC05MWY1LTQ1N2EtOGNkMS1kODdkM2IzOWQ3MGVscmVsYXRpb25zaGlwaHBhcmVudE9mAAAB4mp1bWIAAABBanVtZGNib3IAEQAQgAAAqgA4m3ETYzJwYS5hY3Rpb25zLnYyAAAAABhjMnNoFa6S2esAv1m6ZSDvfblDWQAAAZljYm9yomdhY3Rpb25zgqJmYWN0aW9ua2MycGEub3BlbmVkanBhcmFtZXRlcnOha2luZ3JlZGllbnRzgaJjdXJseC1zZWxmI2p1bWJmPWMycGEuYXNzZXJ0aW9ucy9jMnBhLmluZ3JlZGllbnQudjNkaGFzaFgg31CqZzoyB6UvOwGhOxI77lE4wTt4R/CfsFZUTLSl4IWkZmFjdGlvbngdY29tLmFudGhyb3BpYy5jbGF1ZGUucHJvdmlkZWRqcGFyYW1ldGVyc6F4H2NvbS5hbnRocm9waWMub3JpZ2luLWNvbmZpZGVuY2VndW5rbm93bmtkZXNjcmlwdGlvbnhmQ2xhdWRlIHByb3ZpZGVkIHRoaXMgZmlsZSBhdCB0aGUgcmVxdWVzdCBvZiBhIHVzZXIgYW5kIG1heSBoYXZlIGNyZWF0ZWQgb3IgbW9kaWZpZWQgdGhlIGZpbGUgY29udGVudHMubXNvZnR3YXJlQWdlbnShZG5hbWVmQ2xhdWRlcmFsbEFjdGlvbnNJbmNsdWRlZPUAAADIanVtYgAAAEBqdW1kY2JvcgARABCAAACqADibcRNjMnBhLmhhc2guZGF0YQAAAAAYYzJzaFMjKCSrhOLY4IDQY8EFEFgAAACAY2JvcqVjYWxnZnNoYTI1NmNwYWRNAAAAAAAAAAAAAAAAAGRoYXNoWCCYWwLHCev5EG1HTukFyEShMF22auzHRaPyOaXYr9YFFGRuYW1lbmp1bWJmIG1hbmlmZXN0amV4Y2x1c2lvbnOBomVzdGFydBjKZmxlbmd0aBkeBAAAAj5qdW1iAAAAJ2p1bWRjMmNsABEAEIAAAKoAOJtxA2MycGEuY2xhaW0udjIAAAACD2Nib3KlY2FsZ2ZzaGEyNTZpc2lnbmF0dXJleE1zZWxmI2p1bWJmPS9jMnBhL3VybjpjMnBhOjY2MTgwZTBjLTk5OTItNDFiMi1iZDYyLWM5ODllODZhNDJjZS9jMnBhLnNpZ25hdHVyZWppbnN0YW5jZUlEeCx4bXA6aWlkOjZjNDQ1MmIwLTIzOTktNGQxMS04YmRiLTAzZDg0Yjk2YTY3NHJjcmVhdGVkX2Fzc2VydGlvbnODomN1cmx4LXNlbGYjanVtYmY9YzJwYS5hc3NlcnRpb25zL2MycGEuaW5ncmVkaWVudC52M2RoYXNoWCDfUKpnOjIHpS87AaE7EjvuUTjBO3hH8J+wVlRMtKXghaJjdXJseCpzZWxmI2p1bWJmPWMycGEuYXNzZXJ0aW9ucy9jMnBhLmFjdGlvbnMudjJkaGFzaFgg2UpWWJN4SVO1/OtMHrcpG+PaT/44CRKf1JgOK2ZllsKiY3VybHgpc2VsZiNqdW1iZj1jMnBhLmFzc2VydGlvbnMvYzJwYS5oYXNoLmRhdGFkaGFzaFggFgp3Ltlcoyw0eTbKGuTpBd+SyXAPUXJDiQD0Jdk/OZJ0Y2xhaW1fZ2VuZXJhdG9yX2luZm+jZG5hbWVvQW50aHJvcGljIEZpbGVzZ3ZlcnNpb25lMS4wLjBrc3BlY1ZlcnNpb25lMi40LjAAABA4anVtYgAAAChqdW1kYzJjcwARABCAAACqADibcQNjMnBhLnNpZ25hdHVyZQAAABAIY2JvctKEWQISogEmGCFZAgowggIGMIIBjaADAgECAhRA5aAK7sI50L64g/oGQgU9Z1UTADAKBggqhkjOPQQDAzBJMRcwFQYDVQQKEw5BbnRocm9waWMsIFBCQzEuMCwGA1UEAxMlQW50aHJvcGljIENvbnRlbnQgQ3JlZGVudGlhbHMgUm9vdCBDQTAeFw0yNjA4MDcxODQzNTZaFw0yODA4MDYxOTQzNTZaMEQxFzAVBgNVBAoTDkFudGhyb3BpYywgUEJDMSkwJwYDVQQDEyBBbnRocm9waWMgQ2xhdWRlIENvbnRlbnQgU2lnbmluZzBZMBMGByqGSM49AgEGCCqGSM49AwEHA0IABJh6CmvLUBgFFNU0vUKlOVtE6djd17L5SuwX0LemFisBM3dkd/3cyjxFA3Qo5S46fX0/ihY0VZ7mfb9KF703t5OjWDBWMA4GA1UdDwEB/wQEAwIHgDAVBgNVHSUEDjAMBgorBgEEAYPoXgIBMAwGA1UdEwEB/wQCMAAwHwYDVR0jBBgwFoAUzlHiBIFOZFsj+OPEz5o+nMHXXMIwCgYIKoZIzj0EAwMDZwAwZAIwMXMdFJ4BetLLVY7ORuE9noqbbAZOZn/aArXyTwFAZfKrPzxF2vPoJNf1+UCdg1XGAjBwX1zd9WGqYkqmL5SFqw1QySjr1zJfpJM9+1rdDwSPLMOPOjKuiXjoU/pUUeG9RwmhY3BhZFkNngAAAAAAAAAAAAAAAAAAAAAAAAAAAAAAAAAAAAAAAAAAAAAAAAAAAAAAAAAAAAAAAAAAAAAAAAAAAAAAAAAAAAAAAAAAAAAAAAAAAAAAAAAAAAAAAAAAAAAAAAAAAAAAAAAAAAAAAAAAAAAAAAAAAAAAAAAAAAAAAAAAAAAAAAAAAAAAAAAAAAAAAAAAAAAAAAAAAAAAAAAAAAAAAAAAAAAAAAAAAAAAAAAAAAAAAAAAAAAAAAAAAAAAAAAAAAAAAAAAAAAAAAAAAAAAAAAAAAAAAAAAAAAAAAAAAAAAAAAAAAAAAAAAAAAAAAAAAAAAAAAAAAAAAAAAAAAAAAAAAAAAAAAAAAAAAAAAAAAAAAAAAAAAAAAAAAAAAAAAAAAAAAAAAAAAAAAAAAAAAAAAAAAAAAAAAAAAAAAAAAAAAAAAAAAAAAAAAAAAAAAAAAAAAAAAAAAAAAAAAAAAAAAAAAAAAAAAAAAAAAAAAAAAAAAAAAAAAAAAAAAAAAAAAAAAAAAAAAAAAAAAAAAAAAAAAAAAAAAAAAAAAAAAAAAAAAAAAAAAAAAAAAAAAAAAAAAAAAAAAAAAAAAAAAAAAAAAAAAAAAAAAAAAAAAAAAAAAAAAAAAAAAAAAAAAAAAAAAAAAAAAAAAAAAAAAAAAAAAAAAAAAAAAAAAAAAAAAAAAAAAAAAAAAAAAAAAAAAAAAAAAAAAAAAAAAAAAAAAAAAAAAAAAAAAAAAAAAAAAAAAAAAAAAAAAAAAAAAAAAAAAAAAAAAAAAAAAAAAAAAAAAAAAAAAAAAAAAAAAAAAAAAAAAAAAAAAAAAAAAAAAAAAAAAAAAAAAAAAAAAAAAAAAAAAAAAAAAAAAAAAAAAAAAAAAAAAAAAAAAAAAAAAAAAAAAAAAAAAAAAAAAAAAAAAAAAAAAAAAAAAAAAAAAAAAAAAAAAAAAAAAAAAAAAAAAAAAAAAAAAAAAAAAAAAAAAAAAAAAAAAAAAAAAAAAAAAAAAAAAAAAAAAAAAAAAAAAAAAAAAAAAAAAAAAAAAAAAAAAAAAAAAAAAAAAAAAAAAAAAAAAAAAAAAAAAAAAAAAAAAAAAAAAAAAAAAAAAAAAAAAAAAAAAAAAAAAAAAAAAAAAAAAAAAAAAAAAAAAAAAAAAAAAAAAAAAAAAAAAAAAAAAAAAAAAAAAAAAAAAAAAAAAAAAAAAAAAAAAAAAAAAAAAAAAAAAAAAAAAAAAAAAAAAAAAAAAAAAAAAAAAAAAAAAAAAAAAAAAAAAAAAAAAAAAAAAAAAAAAAAAAAAAAAAAAAAAAAAAAAAAAAAAAAAAAAAAAAAAAAAAAAAAAAAAAAAAAAAAAAAAAAAAAAAAAAAAAAAAAAAAAAAAAAAAAAAAAAAAAAAAAAAAAAAAAAAAAAAAAAAAAAAAAAAAAAAAAAAAAAAAAAAAAAAAAAAAAAAAAAAAAAAAAAAAAAAAAAAAAAAAAAAAAAAAAAAAAAAAAAAAAAAAAAAAAAAAAAAAAAAAAAAAAAAAAAAAAAAAAAAAAAAAAAAAAAAAAAAAAAAAAAAAAAAAAAAAAAAAAAAAAAAAAAAAAAAAAAAAAAAAAAAAAAAAAAAAAAAAAAAAAAAAAAAAAAAAAAAAAAAAAAAAAAAAAAAAAAAAAAAAAAAAAAAAAAAAAAAAAAAAAAAAAAAAAAAAAAAAAAAAAAAAAAAAAAAAAAAAAAAAAAAAAAAAAAAAAAAAAAAAAAAAAAAAAAAAAAAAAAAAAAAAAAAAAAAAAAAAAAAAAAAAAAAAAAAAAAAAAAAAAAAAAAAAAAAAAAAAAAAAAAAAAAAAAAAAAAAAAAAAAAAAAAAAAAAAAAAAAAAAAAAAAAAAAAAAAAAAAAAAAAAAAAAAAAAAAAAAAAAAAAAAAAAAAAAAAAAAAAAAAAAAAAAAAAAAAAAAAAAAAAAAAAAAAAAAAAAAAAAAAAAAAAAAAAAAAAAAAAAAAAAAAAAAAAAAAAAAAAAAAAAAAAAAAAAAAAAAAAAAAAAAAAAAAAAAAAAAAAAAAAAAAAAAAAAAAAAAAAAAAAAAAAAAAAAAAAAAAAAAAAAAAAAAAAAAAAAAAAAAAAAAAAAAAAAAAAAAAAAAAAAAAAAAAAAAAAAAAAAAAAAAAAAAAAAAAAAAAAAAAAAAAAAAAAAAAAAAAAAAAAAAAAAAAAAAAAAAAAAAAAAAAAAAAAAAAAAAAAAAAAAAAAAAAAAAAAAAAAAAAAAAAAAAAAAAAAAAAAAAAAAAAAAAAAAAAAAAAAAAAAAAAAAAAAAAAAAAAAAAAAAAAAAAAAAAAAAAAAAAAAAAAAAAAAAAAAAAAAAAAAAAAAAAAAAAAAAAAAAAAAAAAAAAAAAAAAAAAAAAAAAAAAAAAAAAAAAAAAAAAAAAAAAAAAAAAAAAAAAAAAAAAAAAAAAAAAAAAAAAAAAAAAAAAAAAAAAAAAAAAAAAAAAAAAAAAAAAAAAAAAAAAAAAAAAAAAAAAAAAAAAAAAAAAAAAAAAAAAAAAAAAAAAAAAAAAAAAAAAAAAAAAAAAAAAAAAAAAAAAAAAAAAAAAAAAAAAAAAAAAAAAAAAAAAAAAAAAAAAAAAAAAAAAAAAAAAAAAAAAAAAAAAAAAAAAAAAAAAAAAAAAAAAAAAAAAAAAAAAAAAAAAAAAAAAAAAAAAAAAAAAAAAAAAAAAAAAAAAAAAAAAAAAAAAAAAAAAAAAAAAAAAAAAAAAAAAAAAAAAAAAAAAAAAAAAAAAAAAAAAAAAAAAAAAAAAAAAAAAAAAAAAAAAAAAAAAAAAAAAAAAAAAAAAAAAAAAAAAAAAAAAAAAAAAAAAAAAAAAAAAAAAAAAAAAAAAAAAAAAAAAAAAAAAAAAAAAAAAAAAAAAAAAAAAAAAAAAAAAAAAAAAAAAAAAAAAAAAAAAAAAAAAAAAAAAAAAAAAAAAAAAAAAAAAAAAAAAAAAAAAAAAAAAAAAAAAAAAAAAAAAAAAAAAAAAAAAAAAAAAAAAAAAAAAAAAAAAAAAAAAAAAAAAAAAAAAAAAAAAAAAAAAAAAAAAAAAAAAAAAAAAAAAAAAAAAAAAAAAAAAAAAAAAAAAAAAAAAAAAAAAAAAAAAAAAAAAAAAAAAAAAAAAAAAAAAAAAAAAAAAAAAAAAAAAAAAAAAAAAAAAAAAAAAAAAAAAAAAAAAAAAAAAAAAAAAAAAAAAAAAAAAAAAAAAAAAAAAAAAAAAAAAAAAAAAAAAAAAAAAAAAAAAAAAAAAAAAAAAAAAAAAAAAAAAAAAAAAAAAAAAAAAAAAAAAAAAAAAAAAAAAAAAAAAAAAAAAAAAAAAAAAAAAAAAAAAAAAAAAAAAAAAAAAAAAAAAAAAAAAAAAAAAAAAAAAAAAAAAAAAAAAAAAAAAAAAAAAAAAAAAAAAAAAAAAAAAAAAAAAAAAAAAAAAAAAAAAAAAAAAAAAAAAAAAAAAAAAAAAAAAAAAAAAAAAAAAAAAAAAAAAAAAAAAAAAAAAAAAAAAAAAAAAAAAAAAAAAAAAAAAAAAAAAAAAAAAAAAAAAAAAAAAAAAAAAAAAAAAAAAAAAAAAAAAAAAAAAAAAAAAAAAAAAAAAAAAAAAAAAAAAAAAAAAAAAAAAAAAAAAAAAAAAAAAAAAAAAAAAAAAAAAAAAAAAAAAAAAAAAAAAAAAAAAAAAAAAAAAAAAAAAAAAAAAAAAAAAAAAAAAAAAAAAAAAAAAAAAAAAAAAAAAAAAAAAAAAAAAAAAAAAAAAAAAAAAAAAAAAAAAAAAAAAAAAAAAAAAAAAAAAAAAAAAAAAAAAAAAAAAAAAAAAAAAAAAAAAAAAAAAAAAAAAAAAAAAAAAAAAAAAAAAAAAAAAAAAAAAAAAAAAAAAAAAAAAAAAAAAAAAAAAAAAAAAAAAAAAAAAAAAAAAAAAAAAAAAAAAAAAAAAAAAAAAAAAAAAAAAAAAAAAAAAAAAAAAAAAAAAAAAAAAAAAAAAAAAAAAAAAAAAAAAAAAAAAAAAAAAAAAAAAAAAAAAAAAAAAAAAAAAAAAAAAAAAAAAAAAAAAAAAAAAAAAAAAAAAAAAAAAAAAAAAAAAAAAAAAAAAAAAAAAAAAAAAAAAAAAAAAAAAAAAAAAAAAAAAAAAAAAAAAAAAAAAAAAAAAAAAAAAAAAAAAAAAAAAAAAAAAAAAAAAAAAAAAAAAAAAAAAAAAAAAAAAAAAAAAAAAAAAAAAAAAAAAAAAAAAAAAAAAAAAAAAAAAAAAAAAAAAAAAAAAAAAAAAAAAAAAAAAAAAAAAAAAAAAAAAAAAAAAAAAAAAAAAAAAAAAAAAAAAAAAAAAAAAAAAAAAAAAAAAAAAAAAAAAAAAAAAAAAAAAAAAAAAAAAAAAAAAAAAAAAAAAAAAAAAAAAAAAAAAAAAAAAAAAAAAAAAAAAAAAAAAAAAAAAAAAAAAAAAAAAAAAAAAAAAAAAAAAAAAAAAAAAAAAAAAAAAAAAAAAAAAAAAAAAAAAAAAAAAAAAAAAAAAAAAAAAAAAAAAAAAAAAAAAAAAAAAAAAAAAAAAAAAAAAAAAAAAAAAAAAAAAAAAAAAAAAAAAAAAAAAAAAAAAAAAAAAAAAAAAAAAAAAAAAAAAAAAAAAAAAAAAAAAAAAAAAAAAAAAAAAAAAAAAAAAAAAAAAAAAAAAAAAAAAAAAAAAAAAPZYQIxjOstbWrRdd7lfONvTtJlqyozN9P/uiVuOzhxcPTUTNqu8ZsxRCXxyPbECX9hBoxyMhNbTc5jyi0G2rDUo6gg=</c2pa:manifest></metadata><rect style="fill:#ffffff;fill-opacity:1" id="rect1" width="100.03096" height="100.03096" x="0" y="0"/><g transform="translate(10.0155,37.5522) scale(0.22857)"><path d="M33.8001 62.7215V48.9044C33.8001 43.6518 31.0596 40.6829 25.1216 40.6829C19.184 40.6829 16.4433 43.6518 16.4433 48.9044V62.7215C16.4433 67.9741 19.184 70.9431 25.1216 70.9431C31.0596 70.9431 33.8001 67.9741 33.8001 62.7215ZM0 62.2646V49.3613C0 37.9424 5.36689 26.8659 25.1216 26.8659C44.8765 26.8659 50.2434 37.9424 50.2434 49.3613V62.2646C50.2434 73.6837 44.8765 84.7599 25.1216 84.7599C5.36689 84.7599 0 73.6837 0 62.2646Z" style="fill:#009EFB" fill-rule="evenodd"/><path d="M94.6612 83.618V46.849C94.6612 44.3368 93.5193 42.8525 90.6645 42.8525C87.6956 42.8525 82.2145 44.9078 78.6747 46.849V83.618H62.2314V28.0077H74.4496L76.1625 32.2327C83.0139 28.9213 91.9206 26.8658 98.3153 26.8658C107.793 26.8658 111.105 33.9457 111.105 44.6795V83.618H94.6612Z" style="fill:#009EFB" fill-rule="evenodd"/><path d="M167.515 83.618V5.28409L183.958 3.00025V83.618H167.515ZM157.352 17.3882C155.068 16.9315 152.671 16.703 150.728 16.703C145.476 16.703 145.134 18.9868 145.134 22.6409V29.1496H157.58L156.439 42.624H145.134V83.618H128.69V42.624H120.24V29.1496H128.69V20.8138C128.69 9.39491 134.057 3.00025 147.531 3.00025C152.214 3.00025 155.525 3.4571 159.407 4.48471L157.352 17.3882Z" style="fill:#009EFB" fill-rule="evenodd"/><path d="M207.821 106.114L214.329 83.6183H209.077L191.949 28.0079H208.62L219.925 67.4033L231.229 28.0079H247.901L230.43 83.6183L223.35 106.114H207.821Z" style="fill:#009EFB" fill-rule="evenodd"/><path d="M332.703 33.8526C330.542 35.503 328.206 36.9388 325.726 38.1171C323.871 33.7626 321.474 29.6957 318.626 25.9946C320.41 26.5029 322.135 27.1514 323.792 27.9215L322.224 29.9758L325.912 30.9639L327.375 29.8469C329.278 31.0152 331.062 32.356 332.703 33.8526ZM344.186 58.3425H330.137C329.968 52.305 328.837 46.5086 326.895 41.0989C329.785 39.747 332.496 38.0752 334.988 36.1351C340.39 42.0449 343.806 49.7987 344.186 58.3425ZM334.502 84.2562C332.18 82.1899 329.608 80.399 326.835 78.9383C328.814 73.4808 329.967 67.6264 330.137 61.5262H344.186C343.796 70.3242 340.184 78.2847 334.502 84.2562ZM318.619 93.8759C321.434 90.221 323.809 86.2099 325.654 81.9158C328.01 83.1853 330.203 84.7159 332.197 86.4668C328.327 89.8629 323.708 92.4268 318.619 93.8759ZM310.528 95.1842V77.7481C314.867 77.9407 319.002 78.9161 322.795 80.5379C320.575 85.7471 317.499 90.5949 313.641 94.9085C312.617 95.045 311.579 95.1374 310.528 95.1842ZM310.528 61.5262H326.952C326.787 67.072 325.769 72.4708 323.956 77.5703C319.803 75.8072 315.276 74.7555 310.528 74.5621V61.5262ZM310.528 45.0439C315.246 44.8699 319.766 43.9266 323.97 42.3346C325.774 47.4235 326.788 52.8098 326.952 58.3425H310.528V45.0439ZM310.528 24.6847C311.577 24.7313 312.614 24.8235 313.638 24.9597C317.503 29.2817 320.585 34.139 322.808 39.36C318.964 40.8163 314.834 41.6853 310.528 41.8579V24.6847ZM307.343 41.8579C303.038 41.6852 298.908 40.8163 295.064 39.3598C297.286 34.1389 300.368 29.2817 304.234 24.9598C305.258 24.8235 306.295 24.7313 307.343 24.6847V41.8579ZM307.343 58.3425H290.92C291.084 52.8098 292.098 47.4235 293.902 42.3344C298.106 43.9264 302.626 44.8699 307.343 45.0439V58.3425ZM307.343 74.5621C302.596 74.7555 298.068 75.8072 293.916 77.5703C292.103 72.4708 291.085 67.072 290.92 61.5262H307.343V74.5621ZM307.343 95.1842C306.293 95.1374 305.255 95.045 304.231 94.9085C300.373 90.5949 297.297 85.7471 295.076 80.538C298.87 78.9161 303.005 77.9407 307.343 77.7481V95.1842ZM285.675 86.4668C287.669 84.7159 289.862 83.1853 292.217 81.9158C294.063 86.2099 296.438 90.221 299.253 93.8759C294.164 92.4268 289.545 89.8629 285.675 86.4668ZM273.686 61.5262H287.735C287.907 67.6264 289.058 73.4808 291.037 78.9383C288.264 80.399 285.692 82.1899 283.37 84.2562C277.688 78.2847 274.076 70.3242 273.686 61.5262ZM282.884 36.1351C285.376 38.0752 288.087 39.747 290.979 41.0989C289.035 46.5086 287.904 52.305 287.735 58.3425H273.686C274.066 49.7987 277.482 42.0449 282.884 36.1351ZM299.246 25.9946C296.398 29.6957 294 33.7626 292.146 38.117C289.666 36.9387 287.33 35.503 285.169 33.8524C289.139 30.2331 293.937 27.5076 299.246 25.9946ZM343.416 17.5271L340.492 16.7439L333.934 1.0239L330.247 0.0358499L332.136 14.6934L322.736 12.4494L320.633 7.29163L317.274 6.39161L318.108 12.1883C314.444 11.3147 310.621 10.8508 306.69 10.8508C279.582 10.8508 257.605 32.8263 257.605 59.9344C257.605 87.0425 279.582 109.018 306.69 109.018C308.727 109.018 310.733 108.892 312.706 108.651C311.952 108.686 311.195 108.706 310.434 108.706C283.912 108.706 262.412 87.2052 262.412 60.6832C262.412 34.1611 283.912 12.6608 310.434 12.6608C312.859 12.6608 315.24 12.8445 317.568 13.1919L317.831 13.3297L314.168 17.9855L317.527 18.8855L321.926 15.47L331.189 18.2266L325.767 25.3326C320.682 22.8551 314.972 21.4634 308.937 21.4634C287.689 21.4634 270.465 38.6875 270.465 59.9344C270.465 81.1812 287.689 98.4053 308.937 98.4053C330.183 98.4053 347.407 81.1812 347.407 59.9344C347.407 46.495 340.514 34.6675 330.073 27.7881L339.451 20.6295L342.375 21.4127C345.188 22.1665 349.493 23.1202 349.964 21.3639V21.3637C350.434 19.6074 346.229 18.2809 343.416 17.5271Z" style="fill:#009EFB" fill-rule="evenodd"/></g></svg>