<svg width="26.466524mm" height="26.466524mm" viewBox="0 0 100.03096 100.03096" version="1.1" id="svg1" xmlns="http://www.w3.org/2000/svg" xmlns:c2pa="http://c2pa.org/manifest"><metadata><c2pa:manifest>AAAWgmp1bWIAAAAeanVtZGMycGEAEQAQgAAAqgA4m3EDYzJwYQAAABZcanVtYgAAAEdqdW1kYzJtYQARABCAAACqADibcQN1cm46YzJwYTo1NzBlZjI5Yi05Y2RlLTQ3OWYtOTM4Ny1iMDlmMzZlNmRjZGMAAAADl2p1bWIAAAApanVtZGMyYXMAEQAQgAAAqgA4m3EDYzJwYS5hc3NlcnRpb25zAAAAALxqdW1iAAAARGp1bWRjYm9yABEAEIAAAKoAOJtxE2MycGEuaW5ncmVkaWVudC52MwAAAAAYYzJzaDn6qLlOJ8IBnoxTcYL9BI8AAABwY2JvcqNpZGM6Zm9ybWF0bWltYWdlL3N2Zyt4bWxqaW5zdGFuY2VJRHgseG1wOmlpZDplZmQ2NmZiNi1kOTZhLTQyZjItYWEwOS03OWI2ZDg4YzM5YWNscmVsYXRpb25zaGlwaHBhcmVudE9mAAAB4mp1bWIAAABBanVtZGNib3IAEQAQgAAAqgA4m3ETYzJwYS5hY3Rpb25zLnYyAAAAABhjMnNohDCbac/9vfynhkeoFKnu9gAAAZljYm9yomdhY3Rpb25zgqJmYWN0aW9ua2MycGEub3BlbmVkanBhcmFtZXRlcnOha2luZ3JlZGllbnRzgaJjdXJseC1zZWxmI2p1bWJmPWMycGEuYXNzZXJ0aW9ucy9jMnBhLmluZ3JlZGllbnQudjNkaGFzaFggoDZ+VIAU4s0Vj4JinOSoyk9Y/+Jd4/sDJVForZUucfCkZmFjdGlvbngdY29tLmFudGhyb3BpYy5jbGF1ZGUucHJvdmlkZWRqcGFyYW1ldGVyc6F4H2NvbS5hbnRocm9waWMub3JpZ2luLWNvbmZpZGVuY2VndW5rbm93bmtkZXNjcmlwdGlvbnhmQ2xhdWRlIHByb3ZpZGVkIHRoaXMgZmlsZSBhdCB0aGUgcmVxdWVzdCBvZiBhIHVzZXIgYW5kIG1heSBoYXZlIGNyZWF0ZWQgb3IgbW9kaWZpZWQgdGhlIGZpbGUgY29udGVudHMubXNvZnR3YXJlQWdlbnShZG5hbWVmQ2xhdWRlcmFsbEFjdGlvbnNJbmNsdWRlZPUAAADIanVtYgAAAEBqdW1kY2JvcgARABCAAACqADibcRNjMnBhLmhhc2guZGF0YQAAAAAYYzJzaEEZLeuruLzfumVS+whTqyAAAACAY2JvcqVjYWxnZnNoYTI1NmNwYWRNAAAAAAAAAAAAAAAAAGRoYXNoWCBLHbVWDkAKWp9nCgHZfiLpYo8tz5XWRzH7ZSxYcKzrq2RuYW1lbmp1bWJmIG1hbmlmZXN0amV4Y2x1c2lvbnOBomVzdGFydBjKZmxlbmd0aBkeBAAAAj5qdW1iAAAAJ2p1bWRjMmNsABEAEIAAAKoAOJtxA2MycGEuY2xhaW0udjIAAAACD2Nib3KlY2FsZ2ZzaGEyNTZpc2lnbmF0dXJleE1zZWxmI2p1bWJmPS9jMnBhL3VybjpjMnBhOjU3MGVmMjliLTljZGUtNDc5Zi05Mzg3LWIwOWYzNmU2ZGNkYy9jMnBhLnNpZ25hdHVyZWppbnN0YW5jZUlEeCx4bXA6aWlkOmYyMjBmMTFkLWNmOGMtNGM4OS04NjY3LTIwZWFiNDc4MDI2ZnJjcmVhdGVkX2Fzc2VydGlvbnODomN1cmx4LXNlbGYjanVtYmY9YzJwYS5hc3NlcnRpb25zL2MycGEuaW5ncmVkaWVudC52M2RoYXNoWCCgNn5UgBTizRWPgmKc5KjKT1j/4l3j+wMlUWitlS5x8KJjdXJseCpzZWxmI2p1bWJmPWMycGEuYXNzZXJ0aW9ucy9jMnBhLmFjdGlvbnMudjJkaGFzaFggckqNYSWHgD8jmZHtMUbVa3YAXxPRxJsuRchWPG6NyrSiY3VybHgpc2VsZiNqdW1iZj1jMnBhLmFzc2VydGlvbnMvYzJwYS5oYXNoLmRhdGFkaGFzaFggj+Mn7PtfXgSsauJWXq87ySVm2BIVxtKAl4NLyQ9uZZ50Y2xhaW1fZ2VuZXJhdG9yX2luZm+jZG5hbWVvQW50aHJvcGljIEZpbGVzZ3ZlcnNpb25lMS4wLjBrc3BlY1ZlcnNpb25lMi40LjAAABA4anVtYgAAAChqdW1kYzJjcwARABCAAACqADibcQNjMnBhLnNpZ25hdHVyZQAAABAIY2JvctKEWQISogEmGCFZAgowggIGMIIBjaADAgECAhRA5aAK7sI50L64g/oGQgU9Z1UTADAKBggqhkjOPQQDAzBJMRcwFQYDVQQKEw5BbnRocm9waWMsIFBCQzEuMCwGA1UEAxMlQW50aHJvcGljIENvbnRlbnQgQ3JlZGVudGlhbHMgUm9vdCBDQTAeFw0yNjA4MDcxODQzNTZaFw0yODA4MDYxOTQzNTZaMEQxFzAVBgNVBAoTDkFudGhyb3BpYywgUEJDMSkwJwYDVQQDEyBBbnRocm9waWMgQ2xhdWRlIENvbnRlbnQgU2lnbmluZzBZMBMGByqGSM49AgEGCCqGSM49AwEHA0IABJh6CmvLUBgFFNU0vUKlOVtE6djd17L5SuwX0LemFisBM3dkd/3cyjxFA3Qo5S46fX0/ihY0VZ7mfb9KF703t5OjWDBWMA4GA1UdDwEB/wQEAwIHgDAVBgNVHSUEDjAMBgorBgEEAYPoXgIBMAwGA1UdEwEB/wQCMAAwHwYDVR0jBBgwFoAUzlHiBIFOZFsj+OPEz5o+nMHXXMIwCgYIKoZIzj0EAwMDZwAwZAIwMXMdFJ4BetLLVY7ORuE9noqbbAZOZn/aArXyTwFAZfKrPzxF2vPoJNf1+UCdg1XGAjBwX1zd9WGqYkqmL5SFqw1QySjr1zJfpJM9+1rdDwSPLMOPOjKuiXjoU/pUUeG9RwmhY3BhZFkNngAAAAAAAAAAAAAAAAAAAAAAAAAAAAAAAAAAAAAAAAAAAAAAAAAAAAAAAAAAAAAAAAAAAAAAAAAAAAAAAAAAAAAAAAAAAAAAAAAAAAAAAAAAAAAAAAAAAAAAAAAAAAAAAAAAAAAAAAAAAAAAAAAAAAAAAAAAAAAAAAAAAAAAAAAAAAAAAAAAAAAAAAAAAAAAAAAAAAAAAAAAAAAAAAAAAAAAAAAAAAAAAAAAAAAAAAAAAAAAAAAAAAAAAAAAAAAAAAAAAAAAAAAAAAAAAAAAAAAAAAAAAAAAAAAAAAAAAAAAAAAAAAAAAAAAAAAAAAAAAAAAAAAAAAAAAAAAAAAAAAAAAAAAAAAAAAAAAAAAAAAAAAAAAAAAAAAAAAAAAAAAAAAAAAAAAAAAAAAAAAAAAAAAAAAAAAAAAAAAAAAAAAAAAAAAAAAAAAAAAAAAAAAAAAAAAAAAAAAAAAAAAAAAAAAAAAAAAAAAAAAAAAAAAAAAAAAAAAAAAAAAAAAAAAAAAAAAAAAAAAAAAAAAAAAAAAAAAAAAAAAAAAAAAAAAAAAAAAAAAAAAAAAAAAAAAAAAAAAAAAAAAAAAAAAAAAAAAAAAAAAAAAAAAAAAAAAAAAAAAAAAAAAAAAAAAAAAAAAAAAAAAAAAAAAAAAAAAAAAAAAAAAAAAAAAAAAAAAAAAAAAAAAAAAAAAAAAAAAAAAAAAAAAAAAAAAAAAAAAAAAAAAAAAAAAAAAAAAAAAAAAAAAAAAAAAAAAAAAAAAAAAAAAAAAAAAAAAAAAAAAAAAAAAAAAAAAAAAAAAAAAAAAAAAAAAAAAAAAAAAAAAAAAAAAAAAAAAAAAAAAAAAAAAAAAAAAAAAAAAAAAAAAAAAAAAAAAAAAAAAAAAAAAAAAAAAAAAAAAAAAAAAAAAAAAAAAAAAAAAAAAAAAAAAAAAAAAAAAAAAAAAAAAAAAAAAAAAAAAAAAAAAAAAAAAAAAAAAAAAAAAAAAAAAAAAAAAAAAAAAAAAAAAAAAAAAAAAAAAAAAAAAAAAAAAAAAAAAAAAAAAAAAAAAAAAAAAAAAAAAAAAAAAAAAAAAAAAAAAAAAAAAAAAAAAAAAAAAAAAAAAAAAAAAAAAAAAAAAAAAAAAAAAAAAAAAAAAAAAAAAAAAAAAAAAAAAAAAAAAAAAAAAAAAAAAAAAAAAAAAAAAAAAAAAAAAAAAAAAAAAAAAAAAAAAAAAAAAAAAAAAAAAAAAAAAAAAAAAAAAAAAAAAAAAAAAAAAAAAAAAAAAAAAAAAAAAAAAAAAAAAAAAAAAAAAAAAAAAAAAAAAAAAAAAAAAAAAAAAAAAAAAAAAAAAAAAAAAAAAAAAAAAAAAAAAAAAAAAAAAAAAAAAAAAAAAAAAAAAAAAAAAAAAAAAAAAAAAAAAAAAAAAAAAAAAAAAAAAAAAAAAAAAAAAAAAAAAAAAAAAAAAAAAAAAAAAAAAAAAAAAAAAAAAAAAAAAAAAAAAAAAAAAAAAAAAAAAAAAAAAAAAAAAAAAAAAAAAAAAAAAAAAAAAAAAAAAAAAAAAAAAAAAAAAAAAAAAAAAAAAAAAAAAAAAAAAAAAAAAAAAAAAAAAAAAAAAAAAAAAAAAAAAAAAAAAAAAAAAAAAAAAAAAAAAAAAAAAAAAAAAAAAAAAAAAAAAAAAAAAAAAAAAAAAAAAAAAAAAAAAAAAAAAAAAAAAAAAAAAAAAAAAAAAAAAAAAAAAAAAAAAAAAAAAAAAAAAAAAAAAAAAAAAAAAAAAAAAAAAAAAAAAAAAAAAAAAAAAAAAAAAAAAAAAAAAAAAAAAAAAAAAAAAAAAAAAAAAAAAAAAAAAAAAAAAAAAAAAAAAAAAAAAAAAAAAAAAAAAAAAAAAAAAAAAAAAAAAAAAAAAAAAAAAAAAAAAAAAAAAAAAAAAAAAAAAAAAAAAAAAAAAAAAAAAAAAAAAAAAAAAAAAAAAAAAAAAAAAAAAAAAAAAAAAAAAAAAAAAAAAAAAAAAAAAAAAAAAAAAAAAAAAAAAAAAAAAAAAAAAAAAAAAAAAAAAAAAAAAAAAAAAAAAAAAAAAAAAAAAAAAAAAAAAAAAAAAAAAAAAAAAAAAAAAAAAAAAAAAAAAAAAAAAAAAAAAAAAAAAAAAAAAAAAAAAAAAAAAAAAAAAAAAAAAAAAAAAAAAAAAAAAAAAAAAAAAAAAAAAAAAAAAAAAAAAAAAAAAAAAAAAAAAAAAAAAAAAAAAAAAAAAAAAAAAAAAAAAAAAAAAAAAAAAAAAAAAAAAAAAAAAAAAAAAAAAAAAAAAAAAAAAAAAAAAAAAAAAAAAAAAAAAAAAAAAAAAAAAAAAAAAAAAAAAAAAAAAAAAAAAAAAAAAAAAAAAAAAAAAAAAAAAAAAAAAAAAAAAAAAAAAAAAAAAAAAAAAAAAAAAAAAAAAAAAAAAAAAAAAAAAAAAAAAAAAAAAAAAAAAAAAAAAAAAAAAAAAAAAAAAAAAAAAAAAAAAAAAAAAAAAAAAAAAAAAAAAAAAAAAAAAAAAAAAAAAAAAAAAAAAAAAAAAAAAAAAAAAAAAAAAAAAAAAAAAAAAAAAAAAAAAAAAAAAAAAAAAAAAAAAAAAAAAAAAAAAAAAAAAAAAAAAAAAAAAAAAAAAAAAAAAAAAAAAAAAAAAAAAAAAAAAAAAAAAAAAAAAAAAAAAAAAAAAAAAAAAAAAAAAAAAAAAAAAAAAAAAAAAAAAAAAAAAAAAAAAAAAAAAAAAAAAAAAAAAAAAAAAAAAAAAAAAAAAAAAAAAAAAAAAAAAAAAAAAAAAAAAAAAAAAAAAAAAAAAAAAAAAAAAAAAAAAAAAAAAAAAAAAAAAAAAAAAAAAAAAAAAAAAAAAAAAAAAAAAAAAAAAAAAAAAAAAAAAAAAAAAAAAAAAAAAAAAAAAAAAAAAAAAAAAAAAAAAAAAAAAAAAAAAAAAAAAAAAAAAAAAAAAAAAAAAAAAAAAAAAAAAAAAAAAAAAAAAAAAAAAAAAAAAAAAAAAAAAAAAAAAAAAAAAAAAAAAAAAAAAAAAAAAAAAAAAAAAAAAAAAAAAAAAAAAAAAAAAAAAAAAAAAAAAAAAAAAAAAAAAAAAAAAAAAAAAAAAAAAAAAAAAAAAAAAAAAAAAAAAAAAAAAAAAAAAAAAAAAAAAAAAAAAAAAAAAAAAAAAAAAAAAAAAAAAAAAAAAAAAAAAAAAAAAAAAAAAAAAAAAAAAAAAAAAAAAAAAAAAAAAAAAAAAAAAAAAAAAAAAAAAAAAAAAAAAAAAAAAAAAAAAAAAAAAAAAAAAAAAAAAAAAAAAAAAAAAAAAAAAAAAAAAAAAAAAAAAAAAAAAAAAAAAAAAAAAAAAAAAAAAAAAAAAAAAAAAAAAAAAAAAAAAAAAAAAAAAAAAAAAAAAAAAAAAAAAAAAAAAAAAAAAAAAAAAAAAAAAAAAAAAAAAAAAAAAAAAAAAAAAAAAAAAAAAAAAAAAAAAAAAAAAAAAAAAAAAAAAAAAAAAAAAAAAAAAAAAAAAAAAAAAAAAAAAAAAAAAAAAAAAAAAAAAAAAAAAAAAAAAAAAAAAAAAAAAAAAAAAAAAAAAAAAAAAAAAAAAAAAAAAAAAAAAAAAAAAAAAAAAAAAAAAAAAAAAAAAAAAAAAAAAAAAAAAAAAAAAAAAAAAAAAAAAAAAAAAAAAAAAAAAAAAAAAAAAAAAAAAAAAAAAAAAAAAAAAAAAAAAAAAAAAAAAAAAAAAAAAAAAAAAAAAAAAAAAAAAAAAAAAAAAAAAAAAAAAAAAAAAAAAAAAAAAAAAAAAAAAAAAAAAAAAAAAAAAAAAAAAAAAAAAAAAAAAAAAAAAAAAAAAAAAAAAAAAAAAAAAAAAAAAAAAAAAAAAAAAAAAAAAAAAAAAAAAAAAAAAAAAAAAAAAAAAAAAAAAAAAAAAAAAAAAAAAAAAAAAAAAAAAAAAAAAAAAAAAAAAAAAAAAAAAAAAAAAAAAAAAAAAAAAAAAAAAAAAAAAAAAAAAAAAAAAAAAAAAAAAAAAAAAAAAAAAAAAAAAAAAAAAAAAAAAAAAAAAAAAAAAAAAAAAAAAAAAAAAAAAAAAAAAAAAAAAAAAAAAAAAAAAAAAAAAAAAAAAAAAAAAAAAAAAAAAAAAAAAAAAAAAAAAAAAAAAAAAAAAAAAAAAAAAAAAAAAAAAAAAAAAAAAAAAAAAAAAAAAAAAAAAAAAAAAAAAAAAAAAAAAAAAAAAAAAAAAAAAAAAAAAAAAAAAAAAAAAAAAAAAAAAAAAAAAAAAAAAAAAAAAAAAAAAAAAAAAAAAAAAAAAAAAAAAAAAAAAAAAAAAAAAAAAAAAAAAAAAAAAAAAAAAAAAAAAAAAAAAAAAAAAAAAAAAAAAAAAAAAAAAAAAAAAAAAAAAAAAAAAAAAAAAAAAAAAAAAAAAAAAAAAAAAAAAAAAAAAAAAAAAAAAAAAAAAAAAAAAAAAAAAAAAAAAAAAAAAAAAAAAAAAAAAAAAAAAAAAAAAAAAAAAAAAAAAAAAAAAAAAAAAAAAAAAAAAAAAAAAAAAAAAAAAAAAAAAAAAAAAAAAAAAAAAAAAAAAAAAAAAAAAAAAAAAAAAAAAAAAAAAAAAAAAAAAAAAAAAAAAAAAAAAAAAAAAAAAAAAAAAAAAAAAAAAAAAAAAAAAAAAAAAAAAAAAAAAAAAAAAAAPZYQIzBZVnB0aO84GEOmRECRUeLqMHxf5zMmfJrUjotg/n/wwAGRJ0Lh8D+2NO1djZFCcIG0SUgVP5sY7VzGfsJGn0=</c2pa:manifest></metadata><rect style="fill:#053e6e;fill-opacity:1" id="rect1" width="100.03096" height="100.03096" x="0" y="0"/><g transform="translate(-24.9012,-23.6929) scale(1.20833)"><path d="M 68.6592,52.4274 C 67.8738,51.6526 66.9176,51.1474 65.7565,50.8442 C 65.5516,50.7432 65.415,50.5747 65.4833,50.2716 L 65.654,49.3284 C 65.7565,48.7558 65.3808,48.3179 64.8003,48.3179 L 63.5026,48.3179 C 62.9221,48.3179 62.3757,48.7895 62.2732,49.3284 L 62.1025,50.1705 C 62.0342,50.5411 61.7951,50.6758 61.4878,50.7768 C 60.1218,51.0126 58.8924,51.5516 57.8679,52.3263 C 56.3311,53.4716 55.4432,54.92 55.17,56.6716 C 54.8968,58.2547 55.2725,59.5347 56.297,60.4779 C 57.3215,61.4211 58.9265,62.1284 61.1121,62.6337 C 62.5464,62.9705 63.5026,63.3747 63.9465,63.8126 C 64.3905,64.2505 64.5612,64.8568 64.4588,65.5305 C 64.3222,66.2716 63.9465,66.8779 63.2977,67.3158 C 62.6489,67.7537 61.7951,67.9895 60.8048,67.9895 C 59.7803,67.9895 58.9607,67.72 58.3118,67.1811 C 57.8679,66.8105 57.6288,66.2716 57.5605,65.5979 C 57.4922,65.3621 57.3898,64.6884 56.6726,64.6884 C 55.9213,64.6884 54.931,64.6884 54.1455,64.6884 C 53.3601,64.6884 53.2235,65.3284 53.2235,65.5979 C 53.1552,66.979 53.6333,68.2253 54.6919,69.3705 C 55.3749,70.1116 56.2287,70.6505 57.2532,70.9874 L 57.1849,70.9874 C 57.7313,71.1558 58.2094,71.2232 58.0728,71.7621 L 57.902,72.7053 C 57.7996,73.2779 58.1752,73.7158 58.7558,73.7158 L 60.0535,73.7158 C 60.634,73.7158 61.1804,73.2442 61.2829,72.7053 L 61.4536,71.8632 C 61.5219,71.459 61.7951,71.3242 62.1366,71.2568 C 63.605,71.0211 64.9027,70.5495 65.9955,69.7747 C 67.5664,68.6968 68.5226,67.2147 68.7958,65.3284 C 69.069,63.7116 68.6934,62.3979 67.703,61.4547 C 66.7127,60.5116 65.0393,59.7705 62.7172,59.2653 C 61.2487,58.9284 60.3267,58.5916 59.9169,58.1874 C 59.5071,57.7832 59.3363,57.2105 59.4729,56.5032 C 59.5754,55.7958 59.951,55.2232 60.5657,54.7179 C 61.1804,54.2126 61.9317,53.9768 62.8879,53.9768 C 63.8782,53.9768 64.5954,54.28 65.0735,54.8526 C 65.3808,55.2232 65.4833,55.5937 65.5516,55.9642 C 65.7223,56.7053 66.1663,57.0084 66.6444,57.0084 L 68.9324,57.0084 C 69.8545,57.0084 70.0252,56.4358 69.9911,55.8632 C 70.0252,54.6168 69.513,53.2695 68.6592,52.4274 Z" style="fill:#ffffff"/><path d="M 81.0556,43.4 C 81.602,42.8611 82.1143,43.2989 81.9777,43.8042 L 77.948,63.7453 C 77.8114,64.4863 77.5382,65.6989 77.4016,66.44 C 77.4016,66.44 76.7577,69.6305 76.0863,73.0026 L 75.996,73.4564 L 75.9357,73.7593 C 75.6549,75.1729 75.3772,76.5789 75.1477,77.7579 C 74.5671,80.6211 73.2353,82.6421 70.9814,83.9221 C 69.752,84.6295 68.2153,85 66.7468,85 L 44.8909,85 C 44.1396,85 43.9689,84.4611 44.5153,83.9221 L 50.4232,78.1284 C 50.9696,77.5895 52.0624,77.1516 52.8137,77.1516 L 56.8434,77.1516 C 57.6288,77.1516 57.7996,77.5895 57.2532,78.1284 L 55.8872,79.4758 C 54.9947,80.3875 54.9352,80.4483 55.1812,80.4523 L 55.2183,80.4526 L 55.2383,80.4526 L 65.2442,80.4526 C 65.9955,80.4526 67.2249,80.2505 67.9421,79.981 C 67.9421,79.981 70.2643,79.1389 70.6741,77.0168 C 71.2205,74.2547 76.4112,49.0589 76.4112,49.0589 C 76.5478,48.3179 77.1284,47.2737 77.6748,46.7347 L 81.0556,43.4 Z M 79.1091,37 C 79.8604,37 80.0311,37.5389 79.4847,38.0779 L 73.5768,43.8379 C 73.0304,44.3768 71.9376,44.8147 71.1863,44.8147 L 67.1566,44.8147 C 66.3712,44.8147 66.2004,44.3768 66.7468,43.8379 L 68.1128,42.4905 C 69.0053,41.5788 69.0648,41.518 68.8188,41.514 L 68.7817,41.5137 L 68.7617,41.5137 L 58.7899,41.5137 C 58.0386,41.5137 56.8092,41.7158 56.0921,41.9853 C 56.0921,41.9853 53.7699,42.8274 53.3601,44.9495 C 52.8137,47.7116 47.6229,72.9074 47.6229,72.9074 C 47.4863,73.6484 46.9058,74.6926 46.3594,75.2316 L 42.9444,78.5663 C 42.398,79.1053 41.8857,78.6674 42.0223,78.1621 L 46.052,58.2547 C 46.1886,57.5137 46.4618,56.3011 46.5984,55.56 C 46.5984,55.56 47.2616,52.2736 47.9438,48.8463 L 48.004,48.5436 L 48.0643,48.2407 L 48.1544,47.7868 C 48.4041,46.5284 48.6474,45.2947 48.8523,44.2421 C 49.4329,41.3789 50.7647,39.3579 53.0186,38.0779 C 54.248,37.3705 55.7847,37 57.2532,37 L 79.1091,37 Z" style="fill:#ffffff"/></g></svg>